<?xml version="1.0" standalone="no"?>
<!DOCTYPE svg PUBLIC "-//W3C//DTD SVG 20010904//EN"
 "http://www.w3.org/TR/2001/REC-SVG-20010904/DTD/svg10.dtd">
<svg version="1.0" xmlns="http://www.w3.org/2000/svg"
 width="48.000000pt" height="48.000000pt" viewBox="0 0 48.000000 48.000000"
 preserveAspectRatio="xMidYMid meet">

<g transform="translate(0.000000,48.000000) scale(0.100000,-0.100000)"
fill="#000000" stroke="none">
<path d="M309 363 c-64 -64 -90 -99 -98 -127 -12 -47 -8 -56 25 -56 40 0 63
16 157 108 91 90 102 115 69 145 -36 33 -62 21 -153 -70z m131 33 c0 -15 -163
-176 -179 -176 -26 0 -6 30 76 112 81 81 103 95 103 64z"/>
<path d="M29 371 l-29 -29 0 -140 c0 -122 2 -141 18 -155 23 -21 52 -22 78 -2
14 10 47 14 119 15 124 0 164 16 182 73 14 42 8 90 -11 84 -6 -2 -14 -23 -17
-47 -8 -63 -24 -70 -152 -70 -93 0 -112 -3 -134 -20 -14 -11 -29 -17 -34 -14
-14 8 -11 268 3 282 8 8 46 12 103 12 91 0 123 9 111 29 -5 7 -45 11 -107 11
-98 0 -101 -1 -130 -29z"/>
<path d="M80 270 c0 -19 5 -21 43 -18 29 2 42 8 42 18 0 10 -13 16 -42 18 -38
3 -43 1 -43 -18z"/>
<path d="M80 194 c0 -12 9 -14 42 -12 59 4 63 28 4 28 -35 0 -46 -4 -46 -16z"/>
</g>
</svg>
